<?xml version="1.0" encoding="utf-8"?>

<!-- TODO make the logo suitable to dark mode -->
<!DOCTYPE svg PUBLIC "-//W3C//DTD SVG 1.1//EN" "http://www.w3.org/Graphics/SVG/1.1/DTD/svg11.dtd">
<!-- Uploaded to: SVG Repo, www.svgrepo.com, Generator: SVG Repo Mixer Tools -->
<svg version="1.1" id="Capa_1"
    xmlns="http://www.w3.org/2000/svg"
    xmlns:xlink="http://www.w3.org/1999/xlink" width="60" height="60" viewBox="0 0 32 32" enable-background="new 0 0 32 32" xml:space="preserve">
    <polygon fill="#E371FF" points="8,7 10,8 10,29 8,29 "/>
    <rect x="13" y="10" fill="#31CFFF" width="12" height="20"/>
    <path fill="#2D2220" d="M19,5.5C19,5.78,18.78,6,18.5,6h-6C12.22,6,12,5.78,12,5.5S12.22,5,12.5,5h6C18.78,5,19,5.22,19,5.5z"/>
    <path fill="#2D2220" d="M25,3h0.5C25.78,3,26,2.78,26,2.5S25.78,2,25.5,2H9C7.34,2,6,3.34,6,5c0,0,0,19.66,0,22c0,1.66,1.34,3,3,3
	h16c1,0,1-1,1-1V7h-1V3z M10.5,4H7.27C7.62,3.4,8.26,3,9,3h14.5C23.82,3,24,3,24,3v1h-3.5C20.22,4,20,4.22,20,4.5S20.22,5,20.5,5H24
	v2c0,0-9.64,0-13.5,0H9C7.9,7,7,6.1,7,5h3.5C10.78,5,11,4.78,11,4.5S10.78,4,10.5,4z M25,28c0,1-1,1-1,1H11v-2.5
	c0-0.28-0.22-0.5-0.5-0.5S10,26.22,10,26.5V29H9c-1.1,0-2-0.9-2-2V7.22C7.53,7.7,8.23,8,9,8h1v15.5c0,0.28,0.22,0.5,0.5,0.5
	s0.5-0.22,0.5-0.5V8h14V28z"/>
</svg>